<?xml version="1.0" encoding="UTF-8" standalone="no"?>
<!-- Created with Inkscape (http://www.inkscape.org/) -->

<svg
   xmlns:dc="http://purl.org/dc/elements/1.1/"
   xmlns:cc="http://creativecommons.org/ns#"
   xmlns:rdf="http://www.w3.org/1999/02/22-rdf-syntax-ns#"
   xmlns:svg="http://www.w3.org/2000/svg"
   xmlns="http://www.w3.org/2000/svg"
   xmlns:xlink="http://www.w3.org/1999/xlink"
   version="1.1"
   width="838.27478"
   height="192.70312"
   id="svg2">
  <defs
     id="defs4">
    <linearGradient
       id="linearGradient3956">
      <stop
         id="stop3958"
         style="stop-color:#cccccc;stop-opacity:0"
         offset="0" />
      <stop
         id="stop3960"
         style="stop-color:#cccccc;stop-opacity:1"
         offset="0.35283381" />
      <stop
         id="stop3962"
         style="stop-color:#cccccc;stop-opacity:1"
         offset="0.81509513" />
      <stop
         id="stop3964"
         style="stop-color:#cccccc;stop-opacity:0"
         offset="1" />
    </linearGradient>
    <linearGradient
       id="linearGradient3769">
      <stop
         id="stop3771"
         style="stop-color:#cccccc;stop-opacity:0"
         offset="0" />
      <stop
         id="stop3777"
         style="stop-color:#cccccc;stop-opacity:1"
         offset="0.12084022" />
      <stop
         id="stop3781"
         style="stop-color:#cccccc;stop-opacity:1"
         offset="0.73625207" />
      <stop
         id="stop3773"
         style="stop-color:#cccccc;stop-opacity:0"
         offset="1" />
    </linearGradient>
    <linearGradient
       x1="259.22861"
       y1="621.01306"
       x2="664.19202"
       y2="620.29559"
       id="linearGradient3952"
       xlink:href="#linearGradient3769"
       gradientUnits="userSpaceOnUse"
       gradientTransform="matrix(1,0,0,2.7874981,63,-1209.255)" />
    <linearGradient
       x1="305.61819"
       y1="621.01306"
       x2="647.15228"
       y2="621.01306"
       id="linearGradient3954"
       xlink:href="#linearGradient3956"
       gradientUnits="userSpaceOnUse"
       gradientTransform="matrix(1.077828,0,0,1.0305167,12.633411,117.35347)" />
  </defs>
  <metadata
     id="metadata7">
    <rdf:RDF>
      <cc:Work
         rdf:about="">
        <dc:format>image/svg+xml</dc:format>
        <dc:type
           rdf:resource="http://purl.org/dc/dcmitype/StillImage" />
        <dc:title></dc:title>
      </cc:Work>
    </rdf:RDF>
  </metadata>
  <g
     transform="translate(-71.83823,-606.51453)"
     id="layer1">
    <g
       transform="translate(182,-127)"
       id="g3825">
      <path
         d="m 280.83823,738.25568 429.31408,0 -8.62262,38.12424 -415.85194,0 c 11.3018,-10.13943 16.643,-25.14578 -4.83952,-38.12424 z"
         id="path3787"
         style="fill:url(#linearGradient3954);fill-opacity:1;fill-rule:nonzero;stroke:none" />
      <g
         transform="translate(149,123)"
         id="g3789"
         style="font-size:40px;font-style:normal;font-weight:normal;line-height:125%;letter-spacing:0px;word-spacing:0px;fill:#006680;fill-opacity:1;stroke:none;font-family:Sans">
        <path
           d="m 195.92187,756.36218 17.1875,0 0,-70.80078 -6.25,4.78516 87.01172,0 -6.54297,-4.78516 0,70.80078 17.1875,0 0,-140.625 -17.1875,0 0,66.89453 6.25,-4.78515 -86.71875,0 6.25,4.78515 0,-66.89453 -17.1875,0 0,140.625"
           id="path3791"
           style="font-size:200px;font-variant:normal;font-stretch:normal;fill:#006680;font-family:OxygenSans;-inkscape-font-specification:OxygenSans" />
        <path
           d="m 341.33203,756.36218 16.11328,0 0,-56.54297 c -3e-5,-3.84108 0.26039,-7.42181 0.78125,-10.74218 0.58591,-3.32025 1.59502,-6.608 3.02735,-9.86328 1.43225,-3.25513 3.28772,-6.02206 5.5664,-8.30079 2.2786,-2.27855 5.24084,-4.10147 8.88672,-5.46875 3.71088,-1.4322 7.9752,-2.14834 12.79297,-2.14843 7.74732,9e-5 13.24862,2.40894 16.50391,7.22656 3.32022,4.81779 4.98038,12.33731 4.98046,22.55859 l 0,63.28125 16.21094,0 0,-63.86718 c -1e-4,-13.34628 -2.99489,-23.60018 -8.98437,-30.76172 -5.98967,-7.16136 -14.61597,-10.74209 -25.87891,-10.74219 -4.49225,10e-5 -8.72402,0.52094 -12.69531,1.5625 -3.9063,1.04177 -7.51958,2.57171 -10.83985,4.58984 -3.25524,2.01833 -6.18493,4.52484 -8.78906,7.51953 -2.53909,2.99488 -4.58987,6.41285 -6.15234,10.25391 l 3.90625,1.36719 0.78125,-29.10156 0,-34.66797 -16.21094,1.17187 0,142.67578"
           id="path3793"
           style="font-size:200px;font-variant:normal;font-stretch:normal;fill:#006680;font-family:OxygenSans;-inkscape-font-specification:OxygenSans" />
        <path
           d="m 501.48828,745.91296 c -6.9662,10e-6 -12.95577,-1.79035 -17.96875,-5.37109 -4.94795,-3.58071 -8.62633,-8.39841 -11.03516,-14.45312 -2.40888,-6.11976 -3.6133,-13.18356 -3.61328,-21.19141 -2e-5,-8.13796 1.2044,-15.29941 3.61328,-21.48438 2.40883,-6.18481 6.08721,-11.06762 11.03516,-14.64843 5.01298,-3.64575 11.00255,-5.46866 17.96875,-5.46875 5.40358,9e-5 10.18873,1.04176 14.35547,3.125 4.16659,2.01831 7.552,4.91545 10.15625,8.6914 2.66918,3.71102 4.68741,8.10554 6.05469,13.1836 1.36709,5.01308 2.05069,10.57948 2.05078,16.69922 -9e-5,15.23441 -3.97144,26.43231 -11.91406,33.59375 -5.46883,4.81772 -12.36986,7.25912 -20.70313,7.32421 m 0,12.30469 c 7.16139,0 13.76946,-1.33463 19.82422,-4.0039 6.11971,-2.66927 11.26293,-6.34765 15.42969,-11.03516 4.23167,-4.68748 7.51943,-10.31899 9.86328,-16.89453 2.40875,-6.64059 3.61317,-13.80204 3.61328,-21.48438 -1.1e-4,-5.27338 -0.52094,-10.28639 -1.5625,-15.03906 -0.97667,-4.75253 -2.40896,-9.11451 -4.29688,-13.08594 -1.88812,-3.97127 -4.26442,-7.55199 -7.1289,-10.74218 -2.79957,-3.19002 -5.98967,-5.89184 -9.57031,-8.10547 -3.51571,-2.21344 -7.48706,-3.90615 -11.91407,-5.07813 -4.42715,-1.23687 -9.17975,-1.85536 -14.25781,-1.85547 -4.29693,1.1e-4 -8.39849,0.45584 -12.30469,1.36719 -3.84119,0.84646 -7.38936,2.11599 -10.64453,3.80859 -3.19014,1.62771 -6.15237,3.64593 -8.88672,6.05469 -2.7344,2.34384 -5.14325,5.04566 -7.22656,8.10547 -2.08335,3.05998 -3.84116,6.38029 -5.27344,9.96094 -1.4323,3.5808 -2.50652,7.45449 -3.22265,11.62109 -0.71616,4.10162 -1.07423,8.43105 -1.07422,12.98828 -1e-5,10.35161 1.95311,19.56384 5.85937,27.63672 3.90623,8.00783 9.57029,14.32293 16.99219,18.94531 7.42183,4.5573 16.01558,6.83594 25.78125,6.83594"
           id="path3795"
           style="font-size:200px;font-variant:normal;font-stretch:normal;fill:#006680;font-family:OxygenSans;-inkscape-font-specification:OxygenSans" />
      </g>
    </g>
    <g
       transform="translate(-238,179.22656)"
       id="g3817">
      <path
         d="m 326.20171,573.03521 819.40209,0"
         id="path3783"
         style="fill:none;stroke:#000000;stroke-width:1.01841223;stroke-linecap:butt;stroke-linejoin:miter;stroke-miterlimit:4;stroke-opacity:1;stroke-dasharray:none" />
      <path
         d="m 311.83823,470.25568 451.31408,0 -8,103.12424 -419.15231,0 -19.6717,0 c 10.48571,-27.42666 15.44124,-68.01813 -4.49007,-103.12424 z"
         id="rect2998"
         style="fill:url(#linearGradient3952);fill-opacity:1;fill-rule:nonzero;stroke:none" />
      <g
         id="text3799"
         style="font-size:40px;font-style:normal;font-weight:normal;line-height:125%;letter-spacing:0px;word-spacing:0px;fill:#216778;fill-opacity:1;stroke:none;font-family:Sans">
        <path
           d="m 346.06641,573.36218 16.21093,0 1.36719,-87.98828 0,-39.35547 -3.22266,0 49.31641,111.42578 14.74609,0 50.19532,-111.42578 -3.8086,0 0,38.96485 1.36719,88.3789 16.01563,0 -2.83204,-140.625 -20.50781,0 -51.07422,114.55078 7.03125,0 -50.8789,-114.55078 -21.09375,0 -2.83203,140.625"
           id="path3811"
           style="font-size:200px;font-variant:normal;font-stretch:normal;fill:#216778;font-family:OxygenSans;-inkscape-font-specification:OxygenSans" />
        <path
           d="m 565.10937,559.59265 c -4.62244,2e-5 -8.75656,-0.71613 -12.40234,-2.14844 -3.64587,-1.49737 -6.67322,-3.48305 -9.08203,-5.95703 -2.40889,-2.47393 -4.39456,-5.37106 -5.95703,-8.6914 -1.56253,-3.38539 -2.70185,-6.86846 -3.41797,-10.44922 -0.65107,-3.64579 -0.97659,-7.42183 -0.97656,-11.32813 -3e-5,-4.23171 0.32549,-8.23561 0.97656,-12.01172 0.71612,-3.84107 1.88799,-7.51946 3.51562,-11.03515 1.62758,-3.51555 3.6458,-6.54289 6.05469,-9.08203 2.47392,-2.60408 5.56637,-4.68741 9.27735,-6.25 3.71088,-1.56241 7.84499,-2.34366 12.40234,-2.34375 5.7291,9e-5 10.67701,0.91155 14.84375,2.73437 4.16659,1.82301 7.45435,4.42717 9.86328,7.8125 2.47387,3.3855 4.26424,7.22664 5.37109,11.52344 1.17179,4.29694 1.75773,9.11464 1.75782,14.45312 l 0,8.69141 c -9e-5,3.71098 -0.39072,7.19405 -1.17188,10.44922 -0.71623,3.25524 -1.92066,6.34769 -3.61328,9.27734 -1.62769,2.92972 -3.67847,5.46878 -6.15234,7.61719 -2.40893,2.08335 -5.43627,3.74351 -9.08203,4.98047 -3.6459,1.17189 -7.71491,1.75783 -12.20704,1.75781 m 48.04688,4.98047 0,-94.62891 -14.74609,0 -1.46485,21.67969 3.32031,-0.29297 c -2.66936,-7.35668 -7.03133,-13.08584 -13.08593,-17.1875 -6.05476,-4.16656 -13.57429,-6.24989 -22.5586,-6.25 -6.38026,1.1e-4 -12.20707,0.94412 -17.48047,2.83203 -5.27347,1.88813 -9.76565,4.49229 -13.47656,7.8125 -3.64585,3.32041 -6.7383,7.25921 -9.27734,11.81641 -2.53908,4.49227 -4.39455,9.40763 -5.56641,14.74609 -1.17188,5.2735 -1.75782,10.83991 -1.75781,16.69922 -10e-6,5.14328 0.55337,10.12374 1.66016,14.94141 1.17186,4.75263 2.99477,9.27737 5.46875,13.57422 2.53904,4.29689 5.56638,8.04038 9.08203,11.23047 3.5807,3.19011 7.94267,5.72917 13.08593,7.61718 5.14319,1.88803 10.80725,2.83204 16.99219,2.83204 9.96087,0 18.22909,-2.40886 24.80469,-7.22657 6.57543,-4.8828 10.90486,-11.23045 12.98828,-19.04297 l -3.90625,-0.19531 0,20.41016 c -9e-5,3.32031 -0.16285,6.38021 -0.48828,9.17969 -0.26051,2.86457 -0.71624,5.46874 -1.36719,7.8125 -0.58602,2.34373 -1.36727,4.49217 -2.34375,6.44531 -0.91154,1.9531 -1.98576,3.67836 -3.22265,5.17578 -1.23706,1.56248 -2.66936,2.92966 -4.29688,4.10156 -1.56258,1.17185 -3.28783,2.18096 -5.17578,3.02735 -1.88809,0.84632 -3.97142,1.52991 -6.25,2.05078 -2.27871,0.5208 -4.72011,0.87887 -7.32422,1.07422 -2.53912,0.26038 -5.30604,0.39059 -8.30078,0.39062 -7.03129,-3e-5 -15.82035,-0.65107 -26.36719,-1.95312 l -0.8789,12.59765 c 9.83069,1.43225 18.7174,2.14839 26.66015,2.14844 19.20566,-5e-5 33.20304,-4.36202 41.99219,-13.08594 8.85406,-8.72398 13.28114,-22.16798 13.28125,-40.33203"
           id="path3813"
           style="font-size:200px;font-variant:normal;font-stretch:normal;fill:#216778;font-family:OxygenSans;-inkscape-font-specification:OxygenSans" />
        <path
           d="m 690.69531,575.21765 c 7.48691,0 14.29029,-0.7487 20.41016,-2.24609 6.1197,-1.5625 11.71866,-3.84114 16.79687,-6.83594 l -3.51562,-10.83984 c -10.48186,5.07813 -21.09383,7.61719 -31.83594,7.61718 -5.20839,10e-6 -9.96099,-0.81379 -14.25781,-2.4414 -4.29692,-1.62759 -8.10551,-4.069 -11.42578,-7.32422 -3.32035,-3.25519 -5.92451,-7.61716 -7.8125,-13.08594 -1.88805,-5.53381 -2.79951,-11.94657 -2.73438,-19.23828 l -4.29687,3.41797 77.73437,0 c 0.45563,-3.77599 0.68349,-6.51036 0.6836,-8.20313 -1.1e-4,-14.64836 -3.67849,-26.302 -11.03516,-34.96093 -7.29175,-8.72386 -17.38289,-13.08584 -30.27344,-13.08594 -12.56515,1e-4 -23.27477,4.06911 -32.1289,12.20703 -9.70054,8.98446 -15.16929,21.02872 -16.40625,36.13281 -0.13022,1.95318 -0.19533,3.90631 -0.19532,5.85938 -10e-6,8.07296 1.23697,15.46227 3.71094,22.16797 2.47394,6.70575 5.92446,12.3047 10.35156,16.79687 4.49216,4.4922 9.8307,7.97527 16.01563,10.44922 6.18485,2.40885 12.92312,3.61328 20.21484,3.61328 M 656.61328,517.3075 c 0.4557,-11.19785 3.74346,-20.21477 9.86328,-27.05079 6.18485,-6.83584 13.89969,-10.25381 23.14453,-10.2539 17.51295,9e-5 26.33455,12.63029 26.46485,37.89062 l 4.58984,-4.19922 -68.65234,0 4.58984,3.61329"
           id="path3815"
           style="font-size:200px;font-variant:normal;font-stretch:normal;fill:#216778;font-family:OxygenSans;-inkscape-font-specification:OxygenSans" />
      </g>
    </g>
  </g>
</svg>
